<svg width="241" height="241" viewBox="0 0 241 241" fill="none" xmlns="http://www.w3.org/2000/svg">
<rect width="241" height="241" fill="white"/>
<path fill-rule="evenodd" clip-rule="evenodd" d="M62 11C58.6863 11 56 13.6863 56 17V31H32C28.6863 31 26 33.6863 26 37V214C26 217.314 28.6863 220 32 220H210C213.314 220 216 217.314 216 214V37C216 33.6863 213.314 31 210 31H186V17C186 13.6863 183.314 11 180 11H159C155.686 11 153 13.6863 153 17V31H89V17C89 13.6863 86.3137 11 83 11H62ZM176 21H163V54H176V21ZM66 21H79V54H66V21ZM206 82H36V210H206V82Z" fill="#A5A5A5"/>
<path d="M75.0935 147.153C64.3022 136.366 64.3022 118.877 75.0935 108.09C85.8849 97.3033 103.381 97.3033 114.173 108.09L121.032 115.017L127.827 108.154C138.619 97.3673 156.115 97.3673 166.906 108.154C177.698 118.941 177.698 136.43 166.906 147.217L121.031 193L75.0935 147.153Z" fill="#FF0000"/>
</svg>
